<?xml version="1.0" standalone="no"?>
<!DOCTYPE svg PUBLIC "-//W3C//DTD SVG 20010904//EN"
 "http://www.w3.org/TR/2001/REC-SVG-20010904/DTD/svg10.dtd">
<svg version="1.0" xmlns="http://www.w3.org/2000/svg"
 width="1000.000000pt" height="667.000000pt" viewBox="0 0 1000.000000 667.000000"
 preserveAspectRatio="xMidYMid meet">

<g transform="translate(0.000000,667.000000) scale(0.100000,-0.100000)"
fill="#000000" stroke="none">
<path d="M5132 5566 c-18 -9 -35 -22 -38 -31 -3 -8 -12 -15 -20 -15 -7 0 -28
-13 -45 -28 -24 -21 -32 -39 -36 -74 -7 -64 11 -111 65 -162 47 -46 62 -49 62
-15 0 36 19 19 32 -28 l14 -48 72 1 c40 1 79 7 87 14 7 6 15 30 17 53 2 30 8
43 21 45 13 3 17 -4 17 -31 0 -62 6 -67 75 -67 40 0 67 5 74 14 16 19 26 103
13 118 -14 18 -18 50 -8 66 4 7 3 19 -4 27 -7 9 -8 15 -2 15 5 0 13 8 17 17 9
24 -34 60 -81 69 -24 4 -34 11 -30 20 3 8 -7 21 -27 31 -44 24 -228 29 -275 9z
m148 -151 c76 -46 136 -67 184 -63 24 1 41 -2 44 -10 2 -8 -12 -12 -52 -12
-30 0 -58 -5 -61 -11 -14 -22 -48 -26 -67 -7 -13 13 -33 18 -77 18 -70 0 -107
-12 -115 -37 -3 -10 -3 4 -1 32 6 53 47 125 73 125 8 0 40 -16 72 -35z m43
-159 c5 -32 4 -53 -3 -60 -5 -5 -39 -12 -74 -14 l-63 -4 -12 32 c-15 43 -14
87 2 94 6 2 41 4 77 3 l65 -2 8 -49z m209 4 c-2 -25 -7 -49 -13 -55 -5 -5 -33
-9 -61 -10 l-52 0 -8 49 c-4 28 -4 54 -2 58 3 5 36 8 72 6 l67 -3 -3 -45z"/>
<path d="M5114 4886 c-86 -27 -164 -77 -191 -123 -28 -48 -77 -193 -88 -260
l-7 -43 191 0 191 0 0 43 c-1 33 -26 384 -29 395 -2 5 -27 0 -67 -12z"/>
<path d="M5415 4890 c4 -7 9 -29 10 -49 1 -20 5 -85 9 -146 4 -60 9 -138 12
-173 l6 -62 256 2 257 3 3 191 2 191 -72 6 c-115 10 -112 13 -133 -116 -17
-105 -34 -167 -35 -126 0 8 -7 38 -15 66 -21 72 -81 135 -168 178 -81 39 -145
57 -132 35z"/>
<path d="M4562 4623 c-25 -10 -34 -53 -17 -79 35 -53 119 -11 96 48 -13 33
-44 45 -79 31z"/>
<path d="M6375 4476 c-81 -23 -137 -51 -193 -96 -65 -51 -90 -100 -73 -146 6
-17 11 -46 11 -65 0 -56 16 -67 24 -16 7 43 8 45 47 51 59 10 160 58 206 100
l40 36 12 -39 c12 -42 50 -80 112 -112 22 -11 39 -25 40 -32 0 -6 0 -35 -1
-63 -1 -37 4 -57 18 -75 l20 -24 17 42 c21 53 62 74 99 49 25 -16 25 -16 33
22 4 20 8 69 8 107 0 58 -5 78 -27 117 -35 59 -93 108 -154 131 -66 25 -176
31 -239 13z"/>
<path d="M6383 4153 c-27 -10 -11 -21 37 -25 52 -3 63 4 31 22 -21 10 -47 12
-68 3z"/>
<path d="M6179 4109 c-27 -27 -20 -33 19 -13 37 18 38 20 17 28 -9 3 -25 -4
-36 -15z"/>
<path d="M6709 4043 c-12 -16 -12 -17 1 -7 8 6 22 14 30 17 13 5 12 6 -1 6 -9
1 -23 -7 -30 -16z"/>
<path d="M4020 4023 c0 -12 -9 -27 -20 -33 -22 -12 -27 -49 -9 -67 8 -8 4 -22
-14 -50 -30 -47 -87 -160 -87 -170 0 -4 20 28 43 72 66 124 72 132 106 127 32
-4 46 11 52 58 2 14 9 28 14 32 6 4 0 8 -12 8 -13 0 -23 5 -23 11 0 5 -5 7
-11 4 -6 -4 -17 1 -24 11 -14 18 -14 18 -15 -3z"/>
<path d="M6422 4003 c2 -17 10 -29 21 -31 15 -3 18 2 15 25 -2 17 -10 29 -21
31 -15 3 -18 -2 -15 -25z"/>
<path d="M3673 3993 c3 -29 0 -33 -19 -33 -13 0 -26 -4 -29 -10 -3 -5 1 -10 9
-10 8 0 27 -16 42 -36 23 -30 32 -35 55 -30 24 5 29 1 48 -44 12 -27 26 -73
32 -102 23 -112 27 -125 28 -97 1 35 -34 170 -55 211 -10 18 -16 49 -15 69 1
22 -4 41 -14 49 -8 7 -15 19 -15 26 0 10 -6 11 -24 4 -19 -7 -26 -5 -35 13
-10 20 -11 19 -8 -10z"/>
<path d="M6195 3990 c-9 -15 4 -50 20 -50 18 0 24 21 13 43 -10 19 -24 22 -33
7z"/>
<path d="M6711 3920 c-35 -20 -88 -87 -76 -98 4 -4 10 -1 12 5 3 8 14 11 28 7
32 -8 67 12 60 35 -3 11 3 25 15 36 41 37 18 45 -39 15z"/>
<path d="M6727 3796 c-3 -8 -9 -41 -13 -74 l-6 -59 43 -7 c64 -10 127 -44 144
-77 46 -89 77 -416 73 -774 l-3 -240 -150 1 c-177 1 -373 27 -392 52 -7 9 -13
37 -13 63 l0 48 43 3 42 3 3 93 3 92 34 0 35 0 0 58 0 57 -1790 1 -1790 1 0
-59 0 -58 35 0 35 0 0 -95 0 -95 45 0 c44 0 45 -1 45 -32 0 -18 -4 -71 -10
-118 -5 -47 -27 -269 -49 -495 -23 -225 -63 -637 -91 -915 -27 -278 -50 -513
-50 -522 0 -13 8 -18 29 -18 24 0 30 5 35 27 9 43 143 923 257 1683 22 146 44
293 50 328 l11 62 1448 0 1448 0 6 -22 c11 -41 8 -50 -13 -38 -27 14 -113 13
-271 -5 -193 -22 -316 -44 -385 -69 -54 -19 -63 -26 -87 -71 -52 -96 -143
-366 -261 -781 l-15 -51 160 -58 c88 -32 166 -64 172 -71 8 -8 72 -14 184 -19
164 -7 172 -7 172 11 0 11 9 132 20 269 11 138 20 251 20 253 0 1 10 2 23 2
l22 0 -76 -682 c-43 -376 -79 -702 -82 -725 -4 -40 -3 -43 19 -43 13 0 25 7
28 18 5 17 246 1411 246 1425 0 4 49 7 110 7 l109 0 6 -32 c3 -18 50 -332 105
-698 55 -366 103 -677 106 -693 5 -22 11 -27 35 -27 21 0 29 5 29 18 0 10 -31
334 -70 721 -38 386 -70 704 -70 706 0 3 27 5 60 5 54 0 60 -2 65 -22 5 -25
245 -1415 245 -1423 0 -3 11 -5 25 -5 14 0 25 4 25 10 0 5 -36 328 -80 717
-44 389 -80 711 -80 716 0 4 47 7 104 7 l104 0 6 -27 c3 -16 57 -329 121 -698
63 -369 118 -682 121 -698 4 -21 11 -27 30 -27 24 0 25 2 19 42 -3 24 -39 343
-80 710 -52 457 -75 704 -75 785 0 106 13 195 130 873 71 415 130 758 130 763
0 4 -137 7 -304 7 -254 0 -305 -2 -309 -14z m13 -1260 c0 -2 -8 -10 -17 -17
-16 -13 -17 -12 -4 4 13 16 21 21 21 13z m-73 -62 c-3 -3 -12 -4 -19 -1 -8 3
-5 6 6 6 11 1 17 -2 13 -5z m-74 -11 c-7 -2 -21 -2 -30 0 -10 3 -4 5 12 5 17
0 24 -2 18 -5z m-90 -10 c-7 -2 -19 -2 -25 0 -7 3 -2 5 12 5 14 0 19 -2 13 -5z
m-240 -10 c-7 -2 -19 -2 -25 0 -7 3 -2 5 12 5 14 0 19 -2 13 -5z m-160 -10
c-7 -2 -19 -2 -25 0 -7 3 -2 5 12 5 14 0 19 -2 13 -5z m80 0 c-7 -2 -19 -2
-25 0 -7 3 -2 5 12 5 14 0 19 -2 13 -5z m-240 -10 c-7 -2 -19 -2 -25 0 -7 3
-2 5 12 5 14 0 19 -2 13 -5z m70 0 c-7 -2 -19 -2 -25 0 -7 3 -2 5 12 5 14 0
19 -2 13 -5z m-142 -50 c-12 -20 -14 -14 -5 12 4 9 9 14 11 11 3 -2 0 -13 -6
-23z m-14 -85 c-3 -8 -6 -5 -6 6 -1 11 2 17 5 13 3 -3 4 -12 1 -19z m-10 -160
c-3 -7 -5 -2 -5 12 0 14 2 19 5 13 2 -7 2 -19 0 -25z m-10 -85 c-3 -10 -5 -4
-5 12 0 17 2 24 5 18 2 -7 2 -21 0 -30z m-10 -85 c-3 -7 -5 -2 -5 12 0 14 2
19 5 13 2 -7 2 -19 0 -25z m-10 -160 c-3 -7 -5 -2 -5 12 0 14 2 19 5 13 2 -7
2 -19 0 -25z m-10 -80 c-3 -7 -5 -2 -5 12 0 14 2 19 5 13 2 -7 2 -19 0 -25z
m0 -70 c-3 -8 -6 -5 -6 6 -1 11 2 17 5 13 3 -3 4 -12 1 -19z"/>
<path d="M4725 3641 l-25 -41 -54 6 c-71 8 -77 -5 -32 -63 20 -26 36 -55 36
-65 0 -22 16 -24 24 -2 6 16 0 29 -45 87 l-22 29 54 -7 c54 -6 54 -6 77 30 26
42 31 40 53 -18 14 -35 25 -46 70 -68 l53 -26 -37 -24 c-37 -23 -38 -25 -33
-71 6 -57 -4 -60 -54 -18 -37 32 -56 39 -43 16 12 -21 96 -86 112 -86 10 0 12
13 9 56 -5 56 -5 57 33 83 21 14 38 33 36 41 -1 8 -27 26 -56 40 -47 23 -58
34 -80 80 -14 30 -31 56 -38 58 -7 2 -23 -15 -38 -37z"/>
<path d="M4589 3409 c-17 -17 -20 -29 -16 -61 9 -64 47 -108 107 -123 39 -9
80 27 80 71 0 100 -111 173 -171 113z m121 -50 c33 -33 33 -52 0 -31 -17 11
-20 10 -20 -8 0 -29 -14 -25 -28 8 -13 29 -12 27 4 -50 5 -21 3 -28 -8 -28
-30 0 -70 71 -48 85 5 3 10 -3 10 -14 0 -11 5 -23 10 -26 7 -4 8 7 4 34 -7 41
-6 43 43 60 1 1 16 -13 33 -30z"/>
<path d="M4046 1902 c-3 -5 1 -15 9 -22 8 -7 15 -19 15 -26 0 -9 12 -14 35
-14 19 0 35 4 35 10 0 11 -40 50 -51 50 -4 0 -14 3 -22 6 -8 3 -18 1 -21 -4z"/>
<path d="M3688 1482 c-58 -96 -88 -168 -126 -302 -44 -152 -53 -207 -53 -314
-1 -82 3 -102 23 -138 34 -63 79 -82 172 -73 94 8 101 13 87 57 -10 31 -14 33
-49 30 -30 -3 -45 2 -70 22 -45 39 -56 83 -48 195 7 104 20 166 60 288 14 43
30 123 35 179 6 56 13 108 17 117 13 34 -2 15 -48 -61z"/>
<path d="M4230 1533 c-95 -14 -90 -11 -90 -51 0 -66 4 -68 131 -54 62 7 116
15 121 18 11 7 10 51 -2 75 -9 16 -21 19 -73 18 -34 -1 -73 -3 -87 -6z"/>
<path d="M4266 1295 c-51 -18 -90 -57 -118 -119 -21 -47 -23 -64 -23 -231 0
-184 12 -271 42 -300 8 -9 33 -15 57 -15 l42 0 -13 78 c-21 117 -12 387 15
472 20 62 56 110 92 123 8 3 -1 6 -20 6 -19 0 -52 -6 -74 -14z"/>
<path d="M5584 1233 c-37 -5 -33 18 -68 -313 -15 -129 -28 -248 -31 -263 -4
-26 -2 -28 22 -25 l27 3 47 275 c26 151 50 287 53 303 4 18 1 26 -7 25 -6 0
-26 -3 -43 -5z"/>
<path d="M3867 953 c-4 -3 -7 -21 -7 -40 0 -26 4 -33 20 -33 14 0 20 7 20 24
0 44 -16 67 -33 49z"/>
</g>
</svg>
